<svg xmlns="http://www.w3.org/2000/svg" version="1.1" viewBox="-5.0 -10.0 110.0 135.0">
 <path d="m23.246 68.156v8.0586c0 0.8125 0.65625 1.4688 1.4609 1.4688h14.98c0.16406 0 0.32031-0.035156 0.46875-0.085938 0.14844 0.050782 0.30469 0.085938 0.46875 0.085938h17.59c0.16406 0 0.31641-0.03125 0.46094-0.082032 0.14453 0.046876 0.29688 0.082032 0.45703 0.082032h14.98c0.8125 0 1.4688-0.66016 1.4688-1.4688v-8.1914c7.293-0.95313 12.879-7.2148 12.879-14.668v-0.28906c-0.14844-7.8164-6.3867-14.188-14.199-14.508l-2.8477-0.11719c-0.55078-0.050781-1.0156-0.43359-1.1562-0.95312-1.1641-4.3711-5.4141-14.602-19.629-15.152-14.715-0.57813-20 11.527-21.273 15.242-0.19141 0.55078-0.73047 0.92578-1.2656 0.90625h-1.4531-0.078125c-4 0-7.7617 1.5508-10.598 4.3711-2.8555 2.8438-4.4297 6.6289-4.4297 10.66v0.14062c0.066406 7.0234 4.9414 12.984 11.715 14.5zm2-17.473h13.91v25h-13.91zm15.91-0.52734v-3.7227h16.52v29.25h-16.52zm32.43 25.527h-13.902v-25h13.898v17.52zm-60.051-22.168c0-3.4961 1.3633-6.7773 3.8398-9.2422 2.457-2.4453 5.7188-3.7891 9.1914-3.7891h0.070313 1.4492c1.3945-0.019531 2.6914-0.89062 3.1641-2.2578 1.4922-4.3438 6.3438-14.367 19.305-13.895 12.883 0.5 16.723 9.7266 17.773 13.672 0.35547 1.3203 1.5234 2.2969 2.9531 2.4297l2.9023 0.12109c6.7539 0.27734 12.148 5.7852 12.281 12.539v0.25781c0 6.3594-4.6992 11.73-10.879 12.664v-15.859c0-0.8125-0.66016-1.4688-1.4688-1.4688l-14.434-0.003906v-2.7812c0-0.8125-0.66016-1.4688-1.4688-1.4688h-17.598c-0.8125 0-1.4688 0.66016-1.4688 1.4688v2.7812h-14.453c-0.80469 0-1.4609 0.66016-1.4609 1.4688v15.957c-5.6367-1.4688-9.6484-6.5352-9.6992-12.465zm20.273-13.52c0.023437-0.10547 2.5078-10.73 13.207-12.688 0.54297-0.09375 1.0625 0.26172 1.1641 0.80469 0.097656 0.54297-0.26172 1.0625-0.80469 1.1641-9.4102 1.7188-11.594 11.059-11.613 11.152-0.10156 0.46484-0.51562 0.78125-0.97656 0.78125-0.070312 0-0.14453-0.007813-0.21875-0.023438-0.53906-0.11719-0.87891-0.65234-0.75781-1.1914zm15.965-12.113c0-0.55078 0.44922-1 1-1h0.14062c0.55078 0 1 0.44922 1 1 0 0.55078-0.44922 1-1 1h-0.14062c-0.55078 0-1-0.44531-1-1zm-5.3867 26.801h10.066c0.875 0 1.5898-0.71484 1.5898-1.5898v-2.8203c0-0.875-0.71484-1.5898-1.5898-1.5898h-10.066c-0.875 0-1.5898 0.71484-1.5898 1.5898v2.8203c0 0.87891 0.71094 1.5898 1.5898 1.5898zm4.1797-2v-2h1.6992v2zm5.4805 0h-1.7812v-2h1.7812zm-9.25-2h1.7695v2h-1.7695zm10.027 5.1094h-10.801c-0.67969 0-1.2305 0.55078-1.2305 1.2305v3.3008c0 0.63672 0.50781 1.1758 1.2305 1.2305h10.801c0.67969 0 1.2305-0.55078 1.2305-1.2305v-3.3008c0-0.67578-0.55078-1.2305-1.2305-1.2305zm-0.76953 3.7617-9.2578 0.003906v-1.7617h9.2578zm-6.6094 3.5195h-3.3008c-0.67969 0-1.2305 0.55078-1.2305 1.2305v3.3008c0 0.67969 0.55078 1.2305 1.2305 1.2305h3.3008c0.67969 0 1.2305-0.55078 1.2305-1.2305v-3.3008c0-0.67969-0.55078-1.2305-1.2305-1.2305zm-0.76953 3.7617h-1.7617v-1.7617h1.7617zm8.0195-3.7617h-3.3008c-0.67969 0-1.2305 0.55078-1.2305 1.2305v3.3008c0 0.67969 0.55078 1.2305 1.2305 1.2305h3.3008c0.67969 0 1.2305-0.55078 1.2305-1.2305v-3.3008c0-0.67969-0.55078-1.2305-1.2305-1.2305zm-0.76953 3.7617h-1.7617v-1.7617h1.7617zm8.3477-8.4023h9.2812c0.875 0 1.5898-0.71484 1.5898-1.5898v-2.5391c0-0.875-0.71484-1.5898-1.5898-1.5898h-9.2812c-0.875 0-1.5898 0.71484-1.5898 1.5898v2.5391c0 0.87891 0.71484 1.5898 1.5898 1.5898zm3.9219-2v-1.7188h1.4414v1.7188zm4.9492 0h-1.5117v-1.7188h1.5117zm-8.4609-1.7188h1.5117v1.7188h-1.5117zm9.2422 4.6094h-10.012c-0.67969 0-1.2305 0.55078-1.2305 1.2305v3.0312c0 0.64062 0.50781 1.1797 1.2305 1.2305h10.012c0.67969 0 1.2305-0.55078 1.2305-1.2305v-3.0312c0-0.67969-0.55469-1.2305-1.2305-1.2305zm-0.76953 3.4922-8.4688 0.003906v-1.4922h8.4688zm-6.0898 3.2773h-3.0312c-0.67969 0-1.2305 0.55078-1.2305 1.2305v3.0312c0 0.67969 0.55078 1.2305 1.2305 1.2305h3.0312c0.67969 0 1.2305-0.55078 1.2305-1.2305v-3.0312c0-0.67969-0.55469-1.2305-1.2305-1.2305zm-0.76953 3.4922h-1.4922v-1.4922h1.4922zm7.5-3.4922h-3.0312c-0.67969 0-1.2305 0.55078-1.2305 1.2305v3.0312c0 0.67969 0.55078 1.2305 1.2305 1.2305h3.0312c0.67969 0 1.2305-0.55078 1.2305-1.2305v-3.0312c-0.003906-0.67969-0.55469-1.2305-1.2305-1.2305zm-0.77344 3.4922h-1.4922v-1.4922h1.4922zm-43.32-11.152h9.2812c0.875 0 1.5898-0.71484 1.5898-1.5898v-2.5391c0-0.875-0.71484-1.5898-1.5898-1.5898h-9.2812c-0.875 0-1.5898 0.71484-1.5898 1.5898v2.5391c0 0.87891 0.71484 1.5898 1.5898 1.5898zm3.9219-2v-1.7188h1.4297v1.7188zm4.9492 0h-1.5195v-1.7188h1.5195zm-8.4609-1.7188h1.5078v1.7188h-1.5078zm9.2422 4.6094h-10.012c-0.67969 0-1.2305 0.55078-1.2305 1.2305v3.0312c0 0.64062 0.50781 1.1797 1.2305 1.2305h10.008c0.67969 0 1.2305-0.55078 1.2305-1.2305v-3.0312c0.003907-0.67969-0.55078-1.2305-1.2266-1.2305zm-0.76953 3.4922-8.4688 0.003906v-1.4922h8.4688zm-6.0898 3.2773h-3.0312c-0.67969 0-1.2305 0.55078-1.2305 1.2305v3.0312c0 0.67969 0.55078 1.2305 1.2305 1.2305h3.0312c0.67969 0 1.2305-0.55078 1.2305-1.2305v-3.0312c0-0.67969-0.55469-1.2305-1.2305-1.2305zm-0.76953 3.4922h-1.4883v-1.4922h1.4883zm7.5-3.4922h-3.0312c-0.67969 0-1.2305 0.55078-1.2305 1.2305v3.0312c0 0.67969 0.55078 1.2305 1.2305 1.2305h3.0312c0.67969 0 1.2305-0.55078 1.2305-1.2305v-3.0312c-0.003906-0.67969-0.55469-1.2305-1.2305-1.2305zm-0.77344 3.4922h-1.4883v-1.4922h1.4883z"/>
<text x="0.0" y="117.5" font-size="5.0" font-weight="bold" font-family="Arbeit Regular, Helvetica, Arial-Unicode, Arial, Sans-serif" fill="#000000">Created by Fath Yusuf Iskhaqy</text><text x="0.0" y="122.5" font-size="5.0" font-weight="bold" font-family="Arbeit Regular, Helvetica, Arial-Unicode, Arial, Sans-serif" fill="#000000">from Noun Project</text></svg>