<svg xmlns="http://www.w3.org/2000/svg" viewBox="-5 -10 110 135"><path d="m84.676 46.051.035.031.133.121 4.16 3.707a3.116 3.116 0 0 0 3.942-.777 3.107 3.107 0 0 0-.204-4.078L55.758 12.078a8.645 8.645 0 0 0-5.757-2.207c-2.055 0-4.11.738-5.762 2.207L7.255 45.055a3.07 3.07 0 0 0-.863 1.953 3.09 3.09 0 0 0 .59 2.035l.07.082a3.083 3.083 0 0 0 1.91 1.133 3.092 3.092 0 0 0 2.031-.348l4.145-3.695a1.42 1.42 0 0 1 .183-.16l29.81-26.578a7.307 7.307 0 0 1 9.745 0l29.805 26.578zm.766 6.027v34.727a7.319 7.319 0 0 1-2.149 5.176 7.302 7.302 0 0 1-5.176 2.148H65.558a7.312 7.312 0 0 1-5.175-2.148 7.306 7.306 0 0 1-2.153-5.176v-18.96c0-.915-.375-1.747-.976-2.348l-.078-.082a3.304 3.304 0 0 0-2.27-.895h-9.808c-.918 0-1.75.375-2.348.969a3.349 3.349 0 0 0-.977 2.355v18.961a7.319 7.319 0 0 1-2.148 5.176 7.302 7.302 0 0 1-5.176 2.148H21.887a7.312 7.312 0 0 1-5.176-2.148 7.302 7.302 0 0 1-2.148-5.176V52.086l-1.016.907a1.947 1.947 0 0 1-.43.293 7.06 7.06 0 0 1-4.804.91 7.065 7.065 0 0 1-4.379-2.586l-.102-.14a7.07 7.07 0 0 1 .711-9.34L41.59 9.09a12.62 12.62 0 0 1 8.418-3.222c3.004 0 6.008 1.074 8.418 3.222l36.988 32.977.16.16a7.075 7.075 0 0 1 .508 9.368 7.072 7.072 0 0 1-4.379 2.594 7.06 7.06 0 0 1-4.976-1.016l-.254-.192-1.02-.91zM18.555 48.52v38.285c0 .914.375 1.746.976 2.347a3.316 3.316 0 0 0 2.348.977H34.44c.914 0 1.746-.375 2.348-.977a3.316 3.316 0 0 0 .976-2.347V67.844c0-2.016.824-3.852 2.152-5.176a7.343 7.343 0 0 1 5.176-2.152h9.809a7.3 7.3 0 0 1 5.055 2.039l.12.113a7.306 7.306 0 0 1 2.153 5.176v18.96c0 .915.375 1.747.976 2.348a3.316 3.316 0 0 0 2.348.977h12.56c.913 0 1.745-.375 2.347-.977a3.316 3.316 0 0 0 .976-2.347V48.508L52.21 22.453a3.314 3.314 0 0 0-2.214-.848c-.79 0-1.582.285-2.22.848L18.55 48.515z"/><text y="117.5" font-family="Arbeit Regular, Helvetica, Arial-Unicode, Arial, Sans-serif" font-size="5" font-weight="bold">Created by White Snow</text><text y="122.5" font-family="Arbeit Regular, Helvetica, Arial-Unicode, Arial, Sans-serif" font-size="5" font-weight="bold">from Noun Project</text></svg>