<svg xmlns="http://www.w3.org/2000/svg" viewBox="0 0 100 125" x="0px" y="0px"><path d="m79.93,58.41c-1.99,19.61-18.38,34.4-38.11,34.4-21.13,0-38.31-17.19-38.31-38.31S20.69,16.18,41.81,16.18c3.36,0,6.7.44,9.92,1.3.8.21,1.28,1.04,1.06,1.84-.21.8-1.04,1.28-1.84,1.06-2.97-.79-6.04-1.19-9.14-1.19-19.47,0-35.31,15.84-35.31,35.31s15.84,35.31,35.31,35.31c18.19,0,33.29-13.63,35.13-31.7.08-.82.83-1.43,1.64-1.34.82.08,1.42.82,1.34,1.64Zm16.57-12.78c0,2.75-2.24,4.99-4.99,4.99-1.78,0-3.33-.94-4.21-2.35-3.42.33-6.76.93-9.96,1.72.08.49.04.99-.13,1.47-.33.92-1.08,1.62-2.02,1.89-6.21,1.73-12.01,4.34-16.69,6.81l.73,1.03c.23.32.32.73.25,1.12s-.29.74-.61.97l-26.63,18.87c-.26.19-.57.28-.87.28-.47,0-.93-.22-1.23-.63-.48-.68-.32-1.61.36-2.09h0s25.41-18,25.41-18l-.07-.1-.88-1.24-.72-1.01-.15-.21-1.49-2.1-.13-.19-.74-1.04-.87-1.23-.16-.23-.87-1.22-.73-1.03-.14-.19-1.46-2.06-.14-.19-.73-1.03-.87-1.22-.17-.24-.87-1.23-.74-1.04-.13-.19-1.49-2.1-.15-.21-.72-1.01-.87-1.23-.08-.12-25.41,18s0,0,0,0c-.68.48-1.61.32-2.09-.36-.48-.68-.32-1.61.36-2.09l26.63-18.87c.68-.48,1.61-.32,2.09.36l.74,1.05c3.88-3.6,8.23-8.18,11.94-13.5.56-.8,1.47-1.28,2.45-1.28h0c.5,0,.99.13,1.42.36,1.61-2.45,3.11-5.05,4.44-7.79-1.04-.92-1.71-2.24-1.71-3.73,0-2.75,2.24-4.99,4.99-4.99s4.99,2.24,4.99,4.99-2.24,4.99-4.99,4.99c-.18,0-.35-.03-.52-.05-1.53,3.17-3.27,6.16-5.13,8.94l.52.74c.74,1.04.74,2.44,0,3.48-4.25,5.95-9.16,11.01-13.42,14.88l.35.5,15.15-10.73c.51-.36,1.12-.55,1.73-.55.17,0,.34.01.5.04.71.12,1.33.5,1.79,1.04l8.11-5.75c-.14-.46-.24-.94-.24-1.45,0-2.75,2.24-4.99,4.99-4.99s4.99,2.24,4.99,4.99-2.24,4.99-4.99,4.99c-1.15,0-2.2-.41-3.05-1.07l-8.08,5.72c.79,1.33.45,3.06-.83,3.97l-15.15,10.73.35.49c5.05-2.73,11.44-5.67,18.49-7.72.28-.08.56-.12.84-.12.96,0,1.88.46,2.45,1.27l.52.73c3.44-.88,7.04-1.56,10.76-1.94.16-2.61,2.31-4.69,4.96-4.69s4.99,2.24,4.99,4.99Zm-18.2-17.74c-.02.12-.04.24-.04.37,0,.95.67,1.75,1.57,1.94.14.03.28.05.42.05,1.1,0,1.99-.89,1.99-1.99s-.89-1.99-1.99-1.99c-.97,0-1.78.7-1.95,1.62Zm-13.76-15.08c.26.79,1,1.37,1.88,1.37.32,0,.62-.08.89-.22.65-.33,1.1-.99,1.1-1.77,0-1.1-.89-1.99-1.99-1.99s-1.99.89-1.99,1.99c0,.22.04.42.11.62Zm-9.3,42.77l1.49,2.11c4.89-2.6,11.01-5.37,17.63-7.22l-1.55-2.19c-6.66,1.93-12.73,4.71-17.57,7.31Zm-5.29-7.47l1.46,2.06,15.15-10.73-1.46-2.06-15.15,10.73Zm-5.33-7.52l1.49,2.11c4.06-3.71,8.69-8.52,12.72-14.15l-1.56-2.2c-3.94,5.64-8.58,10.49-12.66,14.24Zm48.87,5.05c0-1.1-.89-1.99-1.99-1.99-.91,0-1.67.62-1.91,1.46-.05.17-.08.35-.08.53,0,1.1.89,1.99,1.99,1.99.11,0,.21-.02.31-.03.95-.15,1.68-.97,1.68-1.96Z"/><text x="0" y="115" fill="#000000" font-size="5px" font-weight="bold" font-family="'Helvetica Neue', Helvetica, Arial-Unicode, Arial, Sans-serif">Created by Justin Blake</text><text x="0" y="120" fill="#000000" font-size="5px" font-weight="bold" font-family="'Helvetica Neue', Helvetica, Arial-Unicode, Arial, Sans-serif">from the Noun Project</text></svg>