<svg xmlns="http://www.w3.org/2000/svg" xmlns:xlink="http://www.w3.org/1999/xlink" version="1.1" x="0px" y="0px" viewBox="0 0 66 82.5" style="enable-background:new 0 0 66 66;" xml:space="preserve"><path d="M53.16,56.43h-3.93l-9.01-27.07c0,0,0-0.01,0-0.01l-2.94-8.83c0-0.01-0.01-0.02-0.01-0.03l-1.04-3.14  c0.25-0.18,0.5-0.37,0.73-0.59c1.09-1.09,1.69-2.54,1.69-4.08c0-1.54-0.6-2.99-1.69-4.08c-2.25-2.25-5.92-2.25-8.17,0  c-1.09,1.09-1.69,2.54-1.69,4.08c0,1.54,0.6,2.99,1.69,4.08c0.23,0.23,0.48,0.42,0.74,0.6l-1.04,3.13  c-0.01,0.01-0.01,0.03-0.01,0.04l-2.93,8.82c-0.01,0.01-0.01,0.03-0.01,0.04l-9,27.05h-3.69c-1.61,0-2.92,1.31-2.92,2.92v2.24  c0,1.61,1.31,2.92,2.92,2.92h40.33c1.61,0,2.92-1.31,2.92-2.92v-2.24C56.08,57.74,54.77,56.43,53.16,56.43z M29.83,22.49l1.62,1.45  l-2.99,2.67L29.83,22.49z M37.3,26.61l-2.99-2.67l1.62-1.45L37.3,26.61z M34.8,48.42l8.2-4.69l3.85,11.58L34.8,48.42z M44.95,56.43  H20.8l12.07-6.91L44.95,56.43z M32.88,47.32l-8.91-5.1l8.91-6.56l8.91,6.56L32.88,47.32z M34.49,34.48l4.36-3.21l2.83,8.51  L34.49,34.48z M37.83,29.65l-4.95,3.65l-4.95-3.65l4.95-4.43L37.83,29.65z M26.91,31.27l4.36,3.21l-7.19,5.29L26.91,31.27z   M22.76,43.73l8.19,4.69l-12.04,6.89L22.76,43.73z M30.14,9.94c0.75-0.75,1.74-1.13,2.73-1.13c0.99,0,1.98,0.38,2.73,1.13  c0.73,0.73,1.13,1.7,1.13,2.73c0,1.03-0.4,2-1.13,2.73c-1.51,1.51-3.96,1.51-5.47,0c-0.73-0.73-1.13-1.7-1.13-2.73  C29.01,11.64,29.41,10.67,30.14,9.94z M32.87,18.44c0.55,0,1.09-0.1,1.62-0.26l0.78,2.34l-2.39,2.14l-2.39-2.14l0.78-2.33  C31.79,18.34,32.33,18.44,32.87,18.44z M54.17,61.58c0,0.56-0.45,1.01-1.01,1.01H12.84c-0.56,0-1.01-0.45-1.01-1.01v-2.24  c0-0.56,0.45-1.01,1.01-1.01h40.33c0.56,0,1.01,0.45,1.01,1.01V61.58z"/><path d="M22.66,23.84c0.24,0,0.49-0.09,0.67-0.28c0.37-0.37,0.37-0.98,0-1.35c-5.26-5.26-5.26-13.82,0-19.08  c0.37-0.37,0.37-0.98,0-1.35s-0.98-0.37-1.35,0c-6,6-6,15.77,0,21.78C22.17,23.74,22.41,23.84,22.66,23.84z"/><path d="M46.36,12.67c0,3.61-1.4,7-3.94,9.54c-0.37,0.37-0.37,0.98,0,1.35c0.19,0.19,0.43,0.28,0.67,0.28  c0.24,0,0.49-0.09,0.67-0.28c2.9-2.9,4.5-6.77,4.5-10.89c0-4.12-1.6-7.98-4.5-10.89c-0.37-0.37-0.98-0.37-1.35,0s-0.37,0.98,0,1.35  C44.95,5.67,46.36,9.06,46.36,12.67z"/><path d="M25.39,20.15c0.19,0.19,0.43,0.28,0.67,0.28s0.49-0.09,0.67-0.28c0.37-0.37,0.37-0.98,0-1.35  c-1.64-1.64-2.54-3.82-2.54-6.14s0.9-4.5,2.54-6.14c0.37-0.37,0.37-0.98,0-1.35c-0.37-0.37-0.98-0.37-1.35,0c-2,2-3.1,4.65-3.1,7.49  S23.39,18.16,25.39,20.15z"/><path d="M39.01,20.15c0.19,0.19,0.43,0.28,0.67,0.28s0.49-0.09,0.67-0.28c4.13-4.13,4.13-10.84,0-14.97c-0.37-0.37-0.98-0.37-1.35,0  c-0.37,0.37-0.37,0.98,0,1.35c3.38,3.38,3.38,8.89,0,12.27C38.64,19.18,38.64,19.78,39.01,20.15z"/><text x="0" y="81" fill="#000000" font-size="5px" font-weight="bold" font-family="'Helvetica Neue', Helvetica, Arial-Unicode, Arial, Sans-serif">Created by Candy Design</text><text x="0" y="86" fill="#000000" font-size="5px" font-weight="bold" font-family="'Helvetica Neue', Helvetica, Arial-Unicode, Arial, Sans-serif">from the Noun Project</text></svg>