<svg xmlns="http://www.w3.org/2000/svg" viewBox="0 0 100 125"><path d="M62.33 45.5v-2.52c0-.83.67-1.5 1.5-1.5s1.5.67 1.5 1.5v2.52c0 .83-.67 1.5-1.5 1.5s-1.5-.67-1.5-1.5ZM83.29 47c.83 0 1.5-.67 1.5-1.5v-2.52c0-.83-.67-1.5-1.5-1.5s-1.5.67-1.5 1.5v2.52c0 .83.67 1.5 1.5 1.5Zm-9.73 0c.83 0 1.5-.67 1.5-1.5v-2.52c0-.83-.67-1.5-1.5-1.5s-1.5.67-1.5 1.5v2.52c0 .83.67 1.5 1.5 1.5Zm-9.73 12.16c.83 0 1.5-.67 1.5-1.5v-2.52c0-.83-.67-1.5-1.5-1.5s-1.5.67-1.5 1.5v2.52c0 .83.67 1.5 1.5 1.5Zm19.46 0c.83 0 1.5-.67 1.5-1.5v-2.52c0-.83-.67-1.5-1.5-1.5s-1.5.67-1.5 1.5v2.52c0 .83.67 1.5 1.5 1.5Zm-9.73 0c.83 0 1.5-.67 1.5-1.5v-2.52c0-.83-.67-1.5-1.5-1.5s-1.5.67-1.5 1.5v2.52c0 .83.67 1.5 1.5 1.5Zm-9.73 12.16c.83 0 1.5-.67 1.5-1.5V67.3c0-.83-.67-1.5-1.5-1.5s-1.5.67-1.5 1.5v2.52c0 .83.67 1.5 1.5 1.5Zm19.46 0c.83 0 1.5-.67 1.5-1.5V67.3c0-.83-.67-1.5-1.5-1.5s-1.5.67-1.5 1.5v2.52c0 .83.67 1.5 1.5 1.5Zm-9.73 0c.83 0 1.5-.67 1.5-1.5V67.3c0-.83-.67-1.5-1.5-1.5s-1.5.67-1.5 1.5v2.52c0 .83.67 1.5 1.5 1.5Zm-9.73 12.16c.83 0 1.5-.67 1.5-1.5v-2.52c0-.83-.67-1.5-1.5-1.5s-1.5.67-1.5 1.5v2.52c0 .83.67 1.5 1.5 1.5ZM43.18 46.39h-2.52c-.83 0-1.5.67-1.5 1.5s.67 1.5 1.5 1.5h2.52c.83 0 1.5-.67 1.5-1.5s-.67-1.5-1.5-1.5Zm9.73 0h-2.52c-.39 0-.73.15-1 .39-.3.27-.5.67-.5 1.11s.2.84.5 1.11c.27.24.61.39 1 .39h2.52c.5 0 .95-.25 1.22-.63.18-.25.28-.54.28-.87s-.11-.62-.28-.87c-.27-.38-.71-.63-1.22-.63Zm-9.73 8.51h-2.52c-.83 0-1.5.67-1.5 1.5s.67 1.5 1.5 1.5h2.52c.83 0 1.5-.67 1.5-1.5s-.67-1.5-1.5-1.5Zm9.73 0h-2.52c-.39 0-.73.15-1 .39-.3.27-.5.67-.5 1.11s.2.84.5 1.11c.27.24.61.39 1 .39h2.52c.5 0 .95-.25 1.22-.63.18-.25.28-.54.28-.87s-.11-.62-.28-.87c-.27-.38-.71-.63-1.22-.63Zm-9.73 8.51h-2.52c-.83 0-1.5.67-1.5 1.5s.67 1.5 1.5 1.5h2.52c.83 0 1.5-.67 1.5-1.5s-.67-1.5-1.5-1.5Zm9.73 0h-2.52c-.39 0-.73.15-1 .39-.3.27-.5.67-.5 1.11s.2.84.5 1.11c.27.24.61.39 1 .39h2.52c.5 0 .95-.25 1.22-.63.18-.25.28-.54.28-.87s-.11-.62-.28-.87c-.27-.38-.71-.63-1.22-.63Zm-9.73 8.51h-2.52c-.83 0-1.5.67-1.5 1.5s.67 1.5 1.5 1.5h2.52c.83 0 1.5-.67 1.5-1.5s-.67-1.5-1.5-1.5Zm9.73 0h-2.52c-.39 0-.73.15-1 .39-.3.27-.5.67-.5 1.11s.2.84.5 1.11c.27.24.61.39 1 .39h2.52c.5 0 .95-.25 1.22-.63.18-.25.28-.54.28-.87s-.11-.62-.28-.87c-.27-.38-.71-.63-1.22-.63Zm30.38 11.56c.83 0 1.5-.67 1.5-1.5v-2.52c0-.83-.67-1.5-1.5-1.5s-1.5.67-1.5 1.5v2.52c0 .83.67 1.5 1.5 1.5Zm-9.73 0c.83 0 1.5-.67 1.5-1.5v-2.52c0-.83-.67-1.5-1.5-1.5s-1.5.67-1.5 1.5v2.52c0 .83.67 1.5 1.5 1.5Zm-30.38-3.04h-2.52c-.83 0-1.5.67-1.5 1.5s.67 1.5 1.5 1.5h2.52c.83 0 1.5-.67 1.5-1.5s-.67-1.5-1.5-1.5Zm9.73 0h-2.52c-.39 0-.73.15-1 .39-.3.27-.5.67-.5 1.11s.2.84.5 1.11c.27.24.61.39 1 .39h2.52c.5 0 .95-.25 1.22-.63.18-.25.28-.54.28-.87s-.11-.62-.28-.87c-.27-.38-.71-.63-1.22-.63Zm43.59 9.75c0 .83-.67 1.5-1.5 1.5H5c-.83 0-1.5-.67-1.5-1.5s.67-1.5 1.5-1.5h2.01V9.81c0-.83.67-1.5 1.5-1.5H49.4c.83 0 1.5.67 1.5 1.5v29.57h3.24V24.19c0-.48.23-.94.63-1.22.39-.28.9-.36 1.36-.2l35.86 12.16c.61.21 1.02.78 1.02 1.42v52.33h2.01c.83 0 1.5.67 1.5 1.5Zm-38.37-1.5V42.38H35.46v46.31h22.67Zm-48.12 0h22.44V40.88c0-.83.67-1.5 1.5-1.5h13.94V11.31H10.01v77.37Zm51.12-47.81v47.81h28.86V37.44L57.13 26.3v13.09h2.5c.83 0 1.5.67 1.5 1.5Zm-42.16-23.5c-.83 0-1.5.67-1.5 1.5v2.35c0 .83.67 1.5 1.5 1.5s1.5-.67 1.5-1.5v-2.35c0-.83-.67-1.5-1.5-1.5Zm19.97 5.35c.83 0 1.5-.67 1.5-1.5v-2.35c0-.83-.67-1.5-1.5-1.5s-1.5.67-1.5 1.5v2.35c0 .83.67 1.5 1.5 1.5Zm0 9.98c.83 0 1.5-.67 1.5-1.5v-2.35c0-.83-.67-1.5-1.5-1.5s-1.5.67-1.5 1.5v2.35c0 .83.67 1.5 1.5 1.5Zm-9.98-15.33c-.83 0-1.5.67-1.5 1.5v2.35c0 .83.67 1.5 1.5 1.5s1.5-.67 1.5-1.5v-2.35c0-.83-.67-1.5-1.5-1.5Zm-9.98 9.98c-.83 0-1.5.67-1.5 1.5v2.35c0 .83.67 1.5 1.5 1.5s1.5-.67 1.5-1.5v-2.35c0-.83-.67-1.5-1.5-1.5Zm9.98 0c-.83 0-1.5.67-1.5 1.5v2.35c0 .83.67 1.5 1.5 1.5s1.5-.67 1.5-1.5v-2.35c0-.83-.67-1.5-1.5-1.5Zm-9.98 9.98c-.83 0-1.5.67-1.5 1.5v2.35c0 .83.67 1.5 1.5 1.5s1.5-.67 1.5-1.5v-2.35c0-.83-.67-1.5-1.5-1.5Zm9.98 0c-.83 0-1.5.67-1.5 1.5v2.35c0 .83.67 1.5 1.5 1.5s1.5-.67 1.5-1.5v-2.35c0-.83-.67-1.5-1.5-1.5Zm-9.98 39.94c-.83 0-1.5.67-1.5 1.5v2.35c0 .83.67 1.5 1.5 1.5s1.5-.67 1.5-1.5v-2.35c0-.83-.67-1.5-1.5-1.5Zm9.98 0c-.83 0-1.5.67-1.5 1.5v2.35c0 .83.67 1.5 1.5 1.5s1.5-.67 1.5-1.5v-2.35c0-.83-.67-1.5-1.5-1.5Zm-9.98-9.98c-.83 0-1.5.67-1.5 1.5v2.35c0 .83.67 1.5 1.5 1.5s1.5-.67 1.5-1.5V68.8c0-.83-.67-1.5-1.5-1.5Zm9.98 0c-.83 0-1.5.67-1.5 1.5v2.35c0 .83.67 1.5 1.5 1.5s1.5-.67 1.5-1.5V68.8c0-.83-.67-1.5-1.5-1.5Zm-9.98-9.98c-.83 0-1.5.67-1.5 1.5v2.35c0 .83.67 1.5 1.5 1.5s1.5-.67 1.5-1.5v-2.35c0-.83-.67-1.5-1.5-1.5Zm9.98 0c-.83 0-1.5.67-1.5 1.5v2.35c0 .83.67 1.5 1.5 1.5s1.5-.67 1.5-1.5v-2.35c0-.83-.67-1.5-1.5-1.5Zm-9.98-9.98c-.83 0-1.5.67-1.5 1.5v2.35c0 .83.67 1.5 1.5 1.5s1.5-.67 1.5-1.5v-2.35c0-.83-.67-1.5-1.5-1.5Zm9.98 0c-.83 0-1.5.67-1.5 1.5v2.35c0 .83.67 1.5 1.5 1.5s1.5-.67 1.5-1.5v-2.35c0-.83-.67-1.5-1.5-1.5Z"/><text y="115" font-family="'Helvetica Neue', Helvetica, Arial-Unicode, Arial, Sans-serif" font-size="5" font-weight="bold">Created by Justin Blake</text><text y="120" font-family="'Helvetica Neue', Helvetica, Arial-Unicode, Arial, Sans-serif" font-size="5" font-weight="bold">from the Noun Project</text></svg>