<svg xmlns="http://www.w3.org/2000/svg" viewBox="-5 -10 110 135"><path d="M23.246 68.156v8.059c0 .812.656 1.468 1.46 1.468h14.98c.165 0 .321-.035.47-.086.148.051.304.086.468.086h17.59c.164 0 .317-.03.461-.082.145.047.297.082.457.082h14.98a1.47 1.47 0 0 0 1.47-1.468v-8.192c7.292-.953 12.878-7.215 12.878-14.668v-.289c-.148-7.816-6.387-14.188-14.199-14.508l-2.848-.117a1.319 1.319 0 0 1-1.156-.953c-1.164-4.371-5.414-14.602-19.629-15.152-14.715-.578-20 11.527-21.273 15.242-.191.55-.73.926-1.265.906h-1.532c-4 0-7.761 1.55-10.598 4.371a14.943 14.943 0 0 0-4.43 10.66v.14a14.974 14.974 0 0 0 11.716 14.5zm2-17.473h13.91v25h-13.91zm15.91-.527v-3.723h16.52v29.25h-16.52zm32.43 25.527H59.684v-25h13.898v17.52zM13.535 53.515c0-3.496 1.363-6.778 3.84-9.243a12.94 12.94 0 0 1 9.191-3.789h1.52c1.394-.02 2.691-.89 3.164-2.257 1.492-4.344 6.344-14.367 19.305-13.895 12.883.5 16.723 9.726 17.773 13.672.355 1.32 1.523 2.296 2.953 2.43l2.902.12c6.754.278 12.148 5.786 12.281 12.54v.257c0 6.36-4.699 11.73-10.879 12.664V50.155a1.47 1.47 0 0 0-1.469-1.469l-14.434-.004v-2.78a1.47 1.47 0 0 0-1.468-1.47H40.616a1.47 1.47 0 0 0-1.47 1.47v2.78H24.695c-.805 0-1.461.66-1.461 1.47v15.956a12.973 12.973 0 0 1-9.7-12.465zm20.273-13.52c.023-.106 2.508-10.73 13.207-12.688a1.007 1.007 0 0 1 1.164.804 1.004 1.004 0 0 1-.805 1.164c-9.41 1.72-11.594 11.06-11.613 11.152a.998.998 0 0 1-1.195.758.995.995 0 0 1-.758-1.191zm15.965-12.113c0-.551.45-1 1-1h.14c.551 0 1 .449 1 1 0 .55-.449 1-1 1h-.14a1 1 0 0 1-1-1zm-5.387 26.8h10.066c.875 0 1.59-.714 1.59-1.59v-2.82c0-.874-.715-1.59-1.59-1.59H44.386c-.875 0-1.59.716-1.59 1.59v2.82c0 .88.711 1.59 1.59 1.59zm4.18-2v-2h1.7v2zm5.48 0h-1.78v-2h1.78zm-9.25-2h1.77v2h-1.77zm10.028 5.11H44.023c-.68 0-1.231.55-1.231 1.23v3.301c0 .637.508 1.176 1.23 1.23h10.802c.68 0 1.23-.55 1.23-1.23v-3.3c0-.676-.55-1.23-1.23-1.23zm-.77 3.762-9.258.004v-1.762h9.258zm-6.61 3.52h-3.3c-.68 0-1.23.55-1.23 1.23v3.3c0 .68.55 1.231 1.23 1.231h3.3c.68 0 1.231-.55 1.231-1.23v-3.301c0-.68-.55-1.23-1.23-1.23zm-.769 3.761h-1.762v-1.762h1.762zm8.02-3.762h-3.301c-.68 0-1.23.551-1.23 1.23v3.302c0 .68.55 1.23 1.23 1.23h3.3c.68 0 1.231-.55 1.231-1.23v-3.301c0-.68-.55-1.23-1.23-1.23zm-.77 3.762h-1.762v-1.762h1.762zm8.348-8.402h9.28c.876 0 1.59-.715 1.59-1.59v-2.54c0-.874-.714-1.589-1.59-1.589h-9.28c-.875 0-1.59.715-1.59 1.59v2.539c0 .879.715 1.59 1.59 1.59zm3.922-2v-1.72h1.441v1.72zm4.949 0h-1.512v-1.72h1.512zm-8.461-1.72h1.512v1.72h-1.512zm9.242 4.61H61.913c-.68 0-1.23.551-1.23 1.23v3.032c0 .64.507 1.18 1.23 1.23h10.012c.68 0 1.23-.55 1.23-1.23v-3.031c0-.68-.554-1.23-1.23-1.23zm-.77 3.492-8.468.004v-1.492h8.469zm-6.09 3.278h-3.03c-.68 0-1.23.55-1.23 1.23v3.031c0 .68.55 1.231 1.23 1.231h3.03c.68 0 1.231-.55 1.231-1.23v-3.032c0-.68-.554-1.23-1.23-1.23zm-.769 3.492h-1.492v-1.492h1.492zm7.5-3.492h-3.031c-.68 0-1.23.55-1.23 1.23v3.031c0 .68.55 1.231 1.23 1.231h3.031c.68 0 1.23-.55 1.23-1.23v-3.032a1.235 1.235 0 0 0-1.23-1.23zm-.773 3.492H69.53v-1.492h1.492zm-43.32-11.152h9.281c.875 0 1.59-.715 1.59-1.59v-2.539c0-.875-.715-1.59-1.59-1.59h-9.281c-.875 0-1.59.715-1.59 1.59v2.54c0 .878.715 1.589 1.59 1.589zm3.922-2v-1.719h1.43v1.719zm4.949 0h-1.52v-1.719h1.52zm-8.461-1.719h1.508v1.719h-1.508zm9.242 4.61H27.343c-.68 0-1.23.55-1.23 1.23v3.031c0 .64.508 1.18 1.23 1.23h10.008c.68 0 1.23-.55 1.23-1.23v-3.03c.005-.68-.55-1.231-1.226-1.231zm-.77 3.492-8.468.004v-1.493h8.469zm-6.09 3.277h-3.03c-.68 0-1.23.55-1.23 1.23v3.032c0 .68.55 1.23 1.23 1.23h3.03c.68 0 1.231-.55 1.231-1.23v-3.031c0-.68-.554-1.23-1.23-1.23zm-.769 3.492h-1.488v-1.492h1.488zm7.5-3.492h-3.03c-.68 0-1.231.55-1.231 1.23v3.032c0 .68.55 1.23 1.23 1.23h3.031c.68 0 1.23-.55 1.23-1.23v-3.031a1.235 1.235 0 0 0-1.23-1.23zm-.773 3.492h-1.488v-1.492h1.488z"/><text y="117.5" font-family="Arbeit Regular, Helvetica, Arial-Unicode, Arial, Sans-serif" font-size="5" font-weight="bold">Created by Fath Yusuf Iskhaqy</text><text y="122.5" font-family="Arbeit Regular, Helvetica, Arial-Unicode, Arial, Sans-serif" font-size="5" font-weight="bold">from Noun Project</text></svg>