<svg xmlns="http://www.w3.org/2000/svg" version="1.1" viewBox="-5.0 -10.0 110.0 135.0">
 <path d="m84.676 46.051 0.035157 0.03125 0.13281 0.12109 4.1602 3.707c0.62891 0.35156 1.3477 0.46094 2.0312 0.34766 0.73438-0.12109 1.4219-0.50781 1.9102-1.125 0.48828-0.61719 0.70703-1.3789 0.66016-2.125-0.046875-0.71094-0.33594-1.4102-0.86328-1.9531l-36.984-32.977c-1.6484-1.4688-3.707-2.207-5.7578-2.207-2.0547 0-4.1094 0.73828-5.7617 2.207l-36.984 32.977c-0.52734 0.54297-0.82031 1.2422-0.86328 1.9531-0.046875 0.71094 0.14844 1.4336 0.58984 2.0352l0.070312 0.082031c0.49219 0.62109 1.1797 1.0117 1.9102 1.1328 0.68359 0.11328 1.4023 0.007813 2.0312-0.34766l4.1445-3.6953c0.058593-0.058594 0.11719-0.11328 0.18359-0.16016l29.809-26.578c1.3945-1.2422 3.1328-1.8633 4.875-1.8633 1.7383 0 3.4805 0.62109 4.8711 1.8633l29.805 26.578zm0.76562 6.0273v34.727c0 2.0156-0.82422 3.8477-2.1484 5.1758-1.3281 1.3281-3.1602 2.1484-5.1758 2.1484h-12.559c-2.0156 0-3.8516-0.82422-5.1758-2.1484-1.3281-1.3281-2.1523-3.1602-2.1523-5.1758v-18.961c0-0.91406-0.375-1.7461-0.97656-2.3477l-0.078125-0.082032c-0.58984-0.55469-1.3906-0.89453-2.2695-0.89453h-9.8086c-0.91797 0-1.75 0.375-2.3477 0.96875-0.60156 0.60938-0.97656 1.4414-0.97656 2.3555v18.961c0 2.0156-0.82422 3.8477-2.1484 5.1758-1.3281 1.3281-3.1602 2.1484-5.1758 2.1484h-12.562c-2.0156 0-3.8516-0.82422-5.1758-2.1484-1.3281-1.3281-2.1484-3.1602-2.1484-5.1758v-34.719l-1.0156 0.90625c-0.13281 0.12109-0.27734 0.21484-0.42969 0.29297-1.4922 0.89453-3.1992 1.1797-4.8047 0.91016-1.6758-0.28125-3.2539-1.1641-4.3789-2.5859l-0.10156-0.14062c-1.0547-1.3984-1.5234-3.0781-1.418-4.7148 0.10938-1.6953 0.82422-3.3555 2.1289-4.625l37.047-33.039c2.4102-2.1484 5.4141-3.2227 8.418-3.2227 3.0039 0 6.0078 1.0742 8.418 3.2227l36.988 32.977 0.16016 0.16016c1.2383 1.2539 1.9219 2.875 2.0273 4.5234 0.10938 1.6875-0.39062 3.4219-1.5195 4.8438-1.1328 1.4297-2.707 2.3125-4.3789 2.5938-1.668 0.28125-3.4453-0.039062-4.9766-1.0156l-0.25391-0.19141-1.0195-0.91016zm-66.887-3.5586v38.285c0 0.91406 0.375 1.7461 0.97656 2.3477 0.60156 0.60156 1.4336 0.97656 2.3477 0.97656h12.562c0.91406 0 1.7461-0.375 2.3477-0.97656 0.60156-0.60156 0.97656-1.4336 0.97656-2.3477v-18.961c0-2.0156 0.82422-3.8516 2.1523-5.1758 1.332-1.3242 3.168-2.1523 5.1758-2.1523h9.8086c1.9531 0 3.7344 0.77734 5.0547 2.0391l0.12109 0.11328c1.3281 1.3281 2.1523 3.1602 2.1523 5.1758v18.961c0 0.91406 0.375 1.7461 0.97656 2.3477 0.60156 0.60156 1.4336 0.97656 2.3477 0.97656h12.559c0.91406 0 1.7461-0.375 2.3477-0.97656 0.60156-0.60156 0.97656-1.4336 0.97656-2.3477v-38.297l-29.227-26.055c-0.63281-0.56641-1.4258-0.84766-2.2148-0.84766-0.78906 0-1.582 0.28516-2.2188 0.84766l-29.227 26.062z"/>
<text x="0.0" y="117.5" font-size="5.0" font-weight="bold" font-family="Arbeit Regular, Helvetica, Arial-Unicode, Arial, Sans-serif" fill="#000000">Created by White Snow</text><text x="0.0" y="122.5" font-size="5.0" font-weight="bold" font-family="Arbeit Regular, Helvetica, Arial-Unicode, Arial, Sans-serif" fill="#000000">from Noun Project</text></svg>