<svg xmlns="http://www.w3.org/2000/svg" xml:space="preserve" style="enable-background:new 0 0 66 66" viewBox="0 0 66 82.5"><path d="M53.16 56.43h-3.93l-9.01-27.07v-.01l-2.94-8.83c0-.01-.01-.02-.01-.03l-1.04-3.14c.25-.18.5-.37.73-.59a5.734 5.734 0 0 0 1.69-4.08c0-1.54-.6-2.99-1.69-4.08a5.788 5.788 0 0 0-8.17 0 5.734 5.734 0 0 0-1.69 4.08c0 1.54.6 2.99 1.69 4.08.23.23.48.42.74.6l-1.04 3.13c-.01.01-.01.03-.01.04l-2.93 8.82c-.01.01-.01.03-.01.04l-9 27.05h-3.69c-1.61 0-2.92 1.31-2.92 2.92v2.24c0 1.61 1.31 2.92 2.92 2.92h40.33c1.61 0 2.92-1.31 2.92-2.92v-2.24c-.02-1.62-1.33-2.93-2.94-2.93zM29.83 22.49l1.62 1.45-2.99 2.67 1.37-4.12zm7.47 4.12-2.99-2.67 1.62-1.45 1.37 4.12zm-2.5 21.81 8.2-4.69 3.85 11.58-12.05-6.89zm10.15 8.01H20.8l12.07-6.91 12.08 6.91zm-12.07-9.11-8.91-5.1 8.91-6.56 8.91 6.56-8.91 5.1zm1.61-12.84 4.36-3.21 2.83 8.51-7.19-5.3zm3.34-4.83-4.95 3.65-4.95-3.65 4.95-4.43 4.95 4.43zm-10.92 1.62 4.36 3.21-7.19 5.29 2.83-8.5zm-4.15 12.46 8.19 4.69-12.04 6.89 3.85-11.58zm7.38-33.79c.75-.75 1.74-1.13 2.73-1.13s1.98.38 2.73 1.13c.73.73 1.13 1.7 1.13 2.73s-.4 2-1.13 2.73a3.869 3.869 0 0 1-5.47 0c-.73-.73-1.13-1.7-1.13-2.73.01-1.03.41-2 1.14-2.73zm2.73 8.5c.55 0 1.09-.1 1.62-.26l.78 2.34-2.39 2.14-2.39-2.14.78-2.33c.52.15 1.06.25 1.6.25zm21.3 43.14c0 .56-.45 1.01-1.01 1.01H12.84c-.56 0-1.01-.45-1.01-1.01v-2.24c0-.56.45-1.01 1.01-1.01h40.33c.56 0 1.01.45 1.01 1.01v2.24z"/><path d="M22.66 23.84c.24 0 .49-.09.67-.28a.96.96 0 0 0 0-1.35c-5.26-5.26-5.26-13.82 0-19.08.37-.37.37-.98 0-1.35s-.98-.37-1.35 0c-6 6-6 15.77 0 21.78.19.18.43.28.68.28zM46.36 12.67c0 3.61-1.4 7-3.94 9.54a.96.96 0 0 0 0 1.35c.19.19.43.28.67.28.24 0 .49-.09.67-.28a15.3 15.3 0 0 0 4.5-10.89c0-4.12-1.6-7.98-4.5-10.89-.37-.37-.98-.37-1.35 0s-.37.98 0 1.35c2.54 2.54 3.95 5.93 3.95 9.54z"/><path d="M25.39 20.15c.19.19.43.28.67.28s.49-.09.67-.28a.96.96 0 0 0 0-1.35c-1.64-1.64-2.54-3.82-2.54-6.14s.9-4.5 2.54-6.14a.96.96 0 0 0 0-1.35.96.96 0 0 0-1.35 0c-2 2-3.1 4.65-3.1 7.49s1.11 5.5 3.11 7.49zM39.01 20.15c.19.19.43.28.67.28s.49-.09.67-.28c4.13-4.13 4.13-10.84 0-14.97a.96.96 0 0 0-1.35 0 .96.96 0 0 0 0 1.35c3.38 3.38 3.38 8.89 0 12.27a.97.97 0 0 0 .01 1.35z"/><text y="81" font-family="'Helvetica Neue', Helvetica, Arial-Unicode, Arial, Sans-serif" font-size="5" font-weight="bold">Created by Candy Design</text><text y="86" font-family="'Helvetica Neue', Helvetica, Arial-Unicode, Arial, Sans-serif" font-size="5" font-weight="bold">from the Noun Project</text></svg>