<?xml version="1.0" standalone="no"?>
<!DOCTYPE svg PUBLIC "-//W3C//DTD SVG 20010904//EN"
 "http://www.w3.org/TR/2001/REC-SVG-20010904/DTD/svg10.dtd">
<svg version="1.0" xmlns="http://www.w3.org/2000/svg"
 width="300.000000pt" height="300.000000pt" viewBox="0 0 300.000000 300.000000"
 preserveAspectRatio="xMidYMid meet">
<metadata>
Created by potrace 1.10, written by Peter Selinger 2001-2011
</metadata>
<g transform="translate(0.000000,300.000000) scale(0.100000,-0.100000)"
fill="#000000" stroke="none">
<path d="M551 2924 c-29 -15 -58 -35 -64 -45 -11 -17 -26 -19 -170 -19 -174 0
-194 -5 -241 -60 l-26 -32 0 -280 c0 -304 1 -310 58 -353 25 -18 45 -20 265
-23 l237 -3 0 -240 0 -239 -25 -12 c-85 -38 -85 -198 0 -236 l25 -12 0 -333 0
-334 -55 -6 c-97 -10 -205 -69 -256 -141 -16 -22 -51 -53 -77 -67 -167 -92
-168 -330 0 -413 l52 -26 380 0 381 0 52 24 c54 26 110 89 119 136 5 24 9 25
78 25 81 0 114 15 146 68 19 30 20 52 20 310 l0 277 50 0 50 0 0 -329 0 -329
26 -32 c49 -58 61 -60 309 -60 l225 0 0 48 0 47 -216 -3 c-193 -3 -218 -1
-235 14 -18 16 -19 36 -19 339 l0 321 53 17 c200 63 379 272 405 474 4 30 10
54 15 53 4 0 28 0 55 0 42 0 49 -3 64 -30 9 -17 29 -35 43 -42 l25 -11 0 -149
0 -148 -38 0 c-65 0 -192 -37 -287 -84 -87 -44 -260 -177 -253 -196 2 -5 43
-52 92 -105 l89 -96 46 44 c222 216 553 220 777 11 55 -51 59 -53 74 -36 9 9
51 54 94 98 l77 82 -56 53 c-77 73 -137 115 -220 155 -79 38 -209 74 -267 74
l-38 0 0 150 0 150 25 12 c85 38 85 198 0 236 l-25 12 0 197 0 197 25 21 c18
14 37 54 63 135 l39 115 174 5 c189 5 207 10 239 63 18 29 20 52 20 262 0 211
-2 233 -20 262 -39 64 -26 63 -587 63 -486 0 -509 -1 -540 -20 -56 -34 -68
-63 -68 -167 l0 -93 -45 0 c-27 0 -58 -8 -77 -20 -59 -36 -63 -54 -63 -310 l0
-230 -50 0 -50 0 0 161 c0 145 -2 165 -20 194 -24 40 -74 65 -127 65 l-38 0 0
112 c0 95 -3 118 -20 147 -36 61 -69 71 -244 71 l-153 0 -36 31 c-75 66 -170
78 -261 33z m-39 -101 c-10 -15 -23 -39 -27 -51 l-7 -24 -29 28 c-31 30 -30
44 5 44 13 0 34 9 47 19 31 25 36 19 11 -16z m202 23 c70 -29 103 -115 69
-183 -67 -137 -267 -93 -265 59 2 101 101 164 196 124z m154 -26 c28 0 28 -5
-2 -41 l-25 -29 -29 54 -29 54 31 -19 c17 -10 41 -19 54 -19z m1976 24 c14
-13 16 -47 16 -217 0 -111 -5 -209 -10 -217 -7 -12 -46 -16 -205 -20 l-196 -5
-45 -138 c-35 -105 -49 -137 -61 -135 -10 2 -30 50 -60 141 l-44 137 -192 0
c-137 0 -196 3 -205 12 -17 17 -17 429 0 446 9 9 134 12 499 12 430 0 489 -2
503 -16z m-2419 -95 c-12 -37 5 -107 38 -157 l33 -48 -41 -19 c-92 -44 -195
-181 -211 -284 -6 -38 -9 -41 -37 -41 -17 0 -39 7 -49 17 -17 15 -18 37 -18
266 0 219 2 253 17 269 14 16 33 18 145 18 127 0 129 0 123 -21z m729 5 c14
-13 16 -52 16 -274 0 -246 -1 -260 -19 -270 -11 -5 -33 -10 -49 -10 -27 0 -30
4 -35 39 -13 98 -102 225 -197 279 -25 14 -47 27 -49 28 -1 2 8 18 22 36 33
44 50 100 45 149 l-4 39 128 0 c102 0 130 -3 142 -16z m636 -122 c0 -27 -3
-52 -7 -55 -4 -4 -19 5 -35 20 l-28 27 27 28 c15 15 30 28 35 28 4 0 8 -22 8
-48z m-1190 -87 c29 -9 23 -14 -53 -39 -46 -15 -63 -18 -60 -9 3 7 8 13 12 13
4 0 13 10 18 23 8 17 7 29 -3 48 -23 41 -16 43 25 6 21 -19 49 -38 61 -42z
m200 46 c-14 -28 -12 -52 7 -73 28 -32 16 -30 -107 9 -11 3 -6 9 15 20 17 9
44 26 60 39 36 29 38 29 25 5z m935 -104 c0 -104 12 -133 68 -167 28 -18 51
-20 199 -20 l166 0 38 -112 c25 -77 46 -122 66 -141 l28 -29 0 -192 0 -193
-25 -11 c-14 -7 -34 -25 -43 -42 -15 -27 -22 -30 -64 -30 -27 0 -51 -1 -55 -2
-5 -1 -11 22 -15 53 -25 203 -204 413 -405 476 l-53 17 0 227 c0 252 2 259 63
259 l32 0 0 -93z m-482 -29 c-14 -15 -30 -25 -35 -22 -9 6 -11 97 -2 107 3 3
19 -9 34 -26 l29 -32 -26 -27z m-467 -2 c73 -34 128 -88 164 -158 53 -106 78
-98 -296 -98 l-326 0 7 27 c27 110 109 202 212 239 64 22 180 18 239 -10z
m558 -32 c13 -13 16 -43 16 -173 l0 -157 -53 -17 c-201 -63 -380 -273 -405
-476 -4 -31 -10 -54 -14 -53 -5 1 -29 2 -55 2 -43 0 -50 3 -65 30 -9 17 -29
35 -43 42 l-25 11 0 239 0 238 228 0 c203 0 231 2 262 19 61 32 75 70 75 199
l0 112 32 0 c17 0 39 -7 47 -16z m866 -93 c18 -35 11 -45 -15 -21 -14 13 -25
27 -25 32 0 16 29 8 40 -11z m310 13 c0 -4 -11 -17 -25 -30 -22 -20 -25 -21
-25 -6 0 10 5 23 12 30 13 13 38 16 38 6z m-2205 -151 c13 -16 21 -31 18 -35
-5 -9 -93 -11 -93 -3 0 7 42 65 47 65 2 0 15 -12 28 -27z m758 -35 c-5 -9 -93
-11 -93 -3 0 3 10 19 22 36 l22 30 27 -28 c15 -15 25 -31 22 -35z m-390 -33
c-15 -19 -27 -33 -28 -32 0 1 -13 17 -29 35 l-30 32 58 0 57 0 -28 -35z m757
-93 c-18 -14 -45 -43 -61 -65 -28 -39 -29 -39 -29 -13 0 16 -10 36 -24 49
l-24 22 36 20 c21 11 43 34 51 50 l15 30 34 -34 33 -34 -31 -25z m223 12 l38
-21 -25 -17 c-19 -12 -26 -25 -26 -48 l0 -31 -29 40 c-16 22 -43 51 -61 65
l-32 25 34 34 33 34 15 -30 c8 -16 32 -39 53 -51z m642 56 c16 -26 43 -29 69
-9 39 31 40 19 2 -34 l-34 -47 -16 25 c-9 14 -23 36 -32 50 -9 14 -12 25 -6
25 6 0 14 -4 17 -10z m-747 -113 c20 -18 82 -133 82 -151 0 -3 -63 -6 -140 -6
-77 0 -140 2 -140 4 0 15 46 107 67 134 42 56 84 62 131 19z m-257 -58 c-15
-30 -30 -65 -33 -77 -6 -20 -12 -22 -90 -22 l-83 0 50 45 c42 37 175 119 182
111 1 -1 -10 -27 -26 -57z m554 -54 l50 -45 -83 0 c-70 0 -84 3 -89 18 -4 13
-37 85 -61 136 -10 19 136 -68 183 -109z m-749 14 c-31 -37 -33 -56 -6 -84
l21 -22 -42 -6 c-23 -3 -52 -15 -65 -28 -34 -32 -32 -5 5 52 25 39 98 119 109
119 2 0 -8 -14 -22 -31z m839 -38 c56 -68 88 -146 41 -102 -13 13 -42 25 -65
28 l-42 6 21 22 c27 28 25 47 -7 87 l-27 33 29 -25 c16 -14 38 -36 50 -49z
m-585 -56 c8 -5 1 -14 -19 -26 -17 -10 -36 -27 -42 -37 -12 -19 -13 -18 -36 8
-29 35 -29 44 2 58 14 7 30 23 37 37 l11 25 18 -29 c9 -16 23 -32 29 -36z
m388 -4 l22 -12 -26 -33 -27 -34 -24 29 c-13 15 -33 31 -43 34 -19 6 -18 8 7
40 l28 35 20 -24 c11 -13 30 -29 43 -35z m-512 -85 c-4 -16 -9 -59 -12 -95
l-6 -66 -115 0 -115 0 6 41 c3 23 14 65 25 95 l21 54 101 0 101 0 -6 -29z
m436 -7 c3 -19 8 -60 10 -92 l3 -58 -184 0 c-101 0 -185 2 -187 4 -4 4 15 167
21 176 2 3 77 5 166 5 l164 -2 7 -33z m309 -18 c11 -30 22 -72 25 -95 l6 -41
-115 0 -115 0 -6 65 c-4 36 -9 79 -12 95 l-5 30 101 0 100 0 21 -54z m-1236
-134 l50 -46 -68 -66 c-37 -37 -67 -71 -67 -77 0 -6 -13 7 -28 28 -16 21 -36
45 -45 53 -9 7 -17 19 -17 25 0 6 5 3 11 -7 15 -26 65 -48 94 -41 33 8 65 49
65 83 0 34 -25 70 -56 82 -29 10 -94 -12 -94 -32 0 -7 -3 -10 -6 -6 -4 3 10
25 30 48 20 24 36 47 36 53 0 5 10 -4 23 -20 12 -17 44 -51 72 -77z m1674 -1
c12 -19 12 -19 -5 1 -32 37 -71 46 -108 25 -59 -34 -60 -107 -3 -142 41 -25
47 -25 92 6 l38 25 -42 -47 c-22 -26 -41 -51 -41 -56 0 -5 -12 5 -27 24 -15
18 -48 52 -72 75 l-44 43 67 67 c36 37 66 72 66 77 0 8 49 -52 79 -98z m-1435
-28 l21 -17 -27 -26 c-16 -14 -28 -31 -28 -37 0 -6 -15 6 -33 26 l-32 38 30
33 c26 28 31 30 39 16 5 -9 18 -24 30 -33z m335 -18 c0 -3 -11 -18 -25 -34
l-26 -29 -30 31 -31 31 29 34 29 34 27 -31 c15 -17 27 -33 27 -36z m443 -34
l-29 -33 -27 33 -27 34 27 34 27 33 29 -33 30 -34 -30 -34z m322 -2 c-19 -19
-34 -31 -34 -26 0 5 -12 21 -26 36 l-27 26 27 25 c14 13 26 29 26 35 0 6 15
-5 34 -24 l33 -36 -33 -36z m-1403 76 c39 -21 16 -90 -30 -90 -16 0 -41 30
-41 50 0 20 25 50 41 50 6 0 19 -5 30 -10z m1693 -6 c9 -8 16 -24 16 -34 0
-20 -25 -50 -41 -50 -27 0 -49 22 -49 50 0 44 44 65 74 34z m-1474 -122 c1
-50 38 -156 80 -226 69 -114 207 -225 327 -263 l53 -17 0 -276 c0 -201 -3
-279 -12 -288 -7 -7 -39 -12 -73 -12 -61 0 -61 0 -74 36 -30 82 -117 144 -205
146 -40 0 -47 4 -73 42 -34 48 -107 99 -175 124 l-48 17 0 336 0 336 25 11
c14 7 34 25 43 42 15 25 23 30 67 32 27 2 53 2 58 0 4 -2 7 -20 7 -40z m324
-23 c3 -36 8 -79 12 -95 l6 -29 -101 0 -101 0 -21 54 c-11 30 -22 72 -25 95
l-6 41 115 0 115 0 6 -66z m458 4 c-2 -32 -7 -73 -10 -92 l-7 -33 -163 0 c-90
0 -165 2 -167 4 -6 6 -25 170 -21 177 2 3 87 5 188 4 l183 -2 -3 -58z m324 21
c-3 -23 -14 -65 -25 -95 l-21 -54 -100 0 -101 0 5 30 c3 17 8 59 12 95 l6 65
115 0 115 0 -6 -41z m-670 -179 l31 -21 -28 -33 c-27 -32 -27 -33 -38 -12 -7
11 -25 28 -42 37 l-31 16 26 27 c14 15 26 34 26 42 0 7 6 3 13 -11 7 -13 26
-34 43 -45z m417 -20 c-10 -5 -29 -22 -43 -37 l-26 -26 -27 33 -26 32 24 11
c13 6 31 21 41 34 l18 24 28 -30 c25 -28 26 -32 11 -41z m-674 8 l42 -6 -21
-22 c-28 -29 -25 -48 11 -90 41 -46 29 -45 -17 2 -52 53 -81 94 -100 139 l-16
39 30 -28 c19 -18 45 -31 71 -34z m909 -11 c-26 -43 -77 -104 -99 -117 -7 -5
-4 4 9 19 27 35 28 54 2 81 l-21 22 42 6 c23 3 51 15 63 26 29 30 32 9 4 -37z
m-703 -106 c13 -32 29 -64 34 -69 26 -26 7 -25 -46 2 -61 30 -176 119 -169
130 2 3 38 4 81 1 l76 -5 24 -59z m355 58 c0 -19 -63 -133 -84 -153 -56 -53
-115 -22 -167 85 -16 34 -29 65 -29 68 0 3 63 6 140 6 77 0 140 -3 140 -6z
m214 -39 c-45 -41 -192 -129 -182 -109 24 51 57 123 61 137 5 14 19 17 88 17
l82 0 -49 -45z m494 -93 c-22 -2 -42 -1 -45 2 -3 3 5 18 18 34 l24 29 21 -31
22 -31 -40 -3z m-940 -34 c19 -20 42 -40 53 -43 17 -6 15 -10 -19 -43 l-37
-37 -15 30 c-8 16 -31 39 -52 50 l-36 20 25 23 c20 18 24 29 20 55 l-4 32 16
-25 c9 -14 31 -42 49 -62z m244 48 c-3 -28 1 -37 23 -52 l26 -17 -38 -21 c-21
-12 -44 -35 -52 -51 l-14 -30 -36 35 -37 35 31 20 c16 12 46 42 65 68 19 26
35 47 35 47 1 0 -1 -15 -3 -34z m872 -86 c91 -23 214 -85 273 -137 l43 -38
-31 -34 -31 -33 -32 31 c-47 46 -173 107 -261 126 -59 13 -103 16 -179 12
-137 -7 -242 -45 -352 -127 l-51 -38 -27 35 c-27 33 -27 35 -9 49 42 35 151
103 188 119 136 57 326 72 469 35z m-678 -121 c-33 -38 -33 -69 -1 -107 30
-35 67 -47 98 -31 21 11 21 11 -2 -15 -14 -14 -29 -26 -35 -26 -15 0 -126 112
-126 126 0 10 77 83 88 84 2 0 -8 -14 -22 -31z m1057 -42 c5 -15 -104 -137
-122 -137 -16 0 -51 29 -51 42 0 5 9 4 19 -2 31 -16 47 -12 79 18 44 41 49 74
21 114 l-24 33 37 -28 c20 -16 39 -34 41 -40z m-2214 -131 c24 -15 9 -24 -31
-19 -24 3 -44 7 -46 8 -1 1 8 18 20 37 l23 35 12 -27 c6 -15 16 -31 22 -34z
m55 -86 c62 -30 111 -80 132 -137 15 -38 20 -43 38 -38 47 16 104 16 134 1 99
-51 100 -195 2 -247 -32 -18 -63 -19 -393 -19 -392 0 -390 0 -441 60 -31 37
-35 103 -11 151 18 34 69 69 102 69 17 0 28 11 44 45 59 125 252 182 393 115z
m205 -112 c1 -5 -7 -8 -17 -8 -11 0 -25 14 -36 36 l-17 37 35 -29 c19 -16 35
-32 35 -36z m243 -216 l-32 -30 0 61 0 62 32 -32 31 -32 -31 -29z"/>
<path d="M1920 2720 l0 -50 50 0 50 0 0 50 0 50 -50 0 -50 0 0 -50z"/>
<path d="M2110 2720 l0 -50 330 0 330 0 0 50 0 50 -330 0 -330 0 0 -50z"/>
<path d="M1920 2530 l0 -50 50 0 50 0 0 50 0 50 -50 0 -50 0 0 -50z"/>
<path d="M2110 2530 l0 -50 45 0 45 0 0 50 0 50 -45 0 -45 0 0 -50z"/>
<path d="M2300 2530 l0 -50 45 0 45 0 0 50 0 50 -45 0 -45 0 0 -50z"/>
<path d="M2480 2530 l0 -50 50 0 50 0 0 50 0 50 -50 0 -50 0 0 -50z"/>
<path d="M2670 2530 l0 -50 50 0 50 0 0 50 0 50 -50 0 -50 0 0 -50z"/>
<path d="M2211 685 c-75 -21 -142 -60 -206 -119 l-55 -51 99 -105 98 -105 27
32 c39 46 101 73 170 73 66 0 105 -17 158 -68 l37 -35 100 104 99 104 -21 24
c-37 39 -140 108 -197 132 -72 29 -230 36 -309 14z m274 -102 c28 -11 67 -31
87 -44 l36 -24 -33 -37 -33 -36 -63 31 c-52 26 -74 31 -134 31 -60 0 -82 -5
-135 -31 l-63 -31 -34 36 c-18 19 -30 38 -25 41 101 70 173 93 272 87 41 -2
98 -13 125 -23z m-416 -42 c-22 -31 -23 -32 -5 -61 20 -36 15 -38 -19 -8 -33
29 -32 51 7 82 41 31 46 27 17 -13z m601 -23 c0 -18 -113 -138 -130 -138 -9 0
-24 8 -33 18 -16 17 -15 18 18 14 68 -8 137 99 90 138 -31 26 -13 30 20 4 19
-14 35 -31 35 -36z m-500 -106 c28 4 29 4 13 -14 -21 -24 -42 -23 -70 4 -31
29 -29 43 2 22 15 -10 37 -14 55 -12z"/>
<path d="M2280 312 c-47 -25 -83 -94 -75 -142 17 -97 120 -149 206 -105 71 37
93 145 42 206 -49 57 -113 72 -173 41z m88 -88 c39 -27 23 -84 -23 -84 -12 0
-26 5 -33 12 -18 18 -15 65 6 77 23 14 24 14 50 -5z"/>
</g>
</svg>
